<svg xmlns="http://www.w3.org/2000/svg" width="1080" height="650" viewBox="0 0 1080 650" role="img" aria-labelledby="title desc">
  <title id="title">Interface 结构</title>
  <desc id="desc">接口把行为契约和具体实现解耦</desc>
  <defs>
    <marker id="arrow" markerWidth="12" markerHeight="12" refX="10" refY="6" orient="auto"><path d="M2 2 L10 6 L2 10 Z" fill="#64748b"/></marker>
    <filter id="shadow" x="-10%" y="-10%" width="120%" height="130%"><feDropShadow dx="0" dy="8" stdDeviation="10" flood-color="#0f172a" flood-opacity="0.12"/></filter>
  </defs>
  <rect width="1080" height="650" fill="#f8fafc"/>
  <rect x="34" y="30" width="1012" height="590" rx="18" fill="#ffffff" stroke="#dbe3ef"/>
  <text x="540" y="78" text-anchor="middle" font-family="Arial, 'Microsoft YaHei', sans-serif" font-size="30" font-weight="700" fill="#0f172a">Interface 结构</text>
  <text x="540" y="112" text-anchor="middle" font-family="Arial, 'Microsoft YaHei', sans-serif" font-size="16" fill="#64748b">接口把行为契约和具体实现解耦</text>
  <g filter="url(#shadow)" font-family="Arial, 'Microsoft YaHei', sans-serif">
    <rect x="105" y="240" width="250" height="120" rx="14" fill="#eff6ff" stroke="#2563eb" stroke-width="2"/><text x="230" y="288" text-anchor="middle" font-size="23" font-weight="700" fill="#1d4ed8">业务代码</text><text x="230" y="320" text-anchor="middle" font-size="15" fill="#334155">依赖行为</text>
    <rect x="415" y="220" width="250" height="160" rx="14" fill="#ecfeff" stroke="#0891b2" stroke-width="2"/><text x="540" y="268" text-anchor="middle" font-size="23" font-weight="700" fill="#155e75">interface</text><text x="540" y="305" text-anchor="middle" font-size="15" fill="#334155">Save</text><text x="540" y="330" text-anchor="middle" font-size="15" fill="#334155">Find</text><text x="540" y="355" text-anchor="middle" font-size="15" fill="#334155">Delete</text>
    <rect x="725" y="175" width="250" height="100" rx="14" fill="#f0fdf4" stroke="#16a34a" stroke-width="2"/><text x="850" y="218" text-anchor="middle" font-size="21" font-weight="700" fill="#15803d">MySQLStore</text><text x="850" y="246" text-anchor="middle" font-size="14" fill="#334155">生产实现</text>
    <rect x="725" y="335" width="250" height="100" rx="14" fill="#fef3c7" stroke="#d97706" stroke-width="2"/><text x="850" y="378" text-anchor="middle" font-size="21" font-weight="700" fill="#b45309">MockStore</text><text x="850" y="406" text-anchor="middle" font-size="14" fill="#334155">测试实现</text>
  </g>
  <g fill="none" stroke="#64748b" stroke-width="3" marker-end="url(#arrow)"><path d="M355 300 H403"/><path d="M665 275 C695 250 705 225 713 225"/><path d="M665 325 C695 350 705 385 713 385"/></g>
</svg>
